<svg width="41" height="40" viewBox="0 0 41 40" fill="none" xmlns="http://www.w3.org/2000/svg">
<path d="M20.5 28.4258C20.5 28.4258 24.2112 21.1094 28.4526 14.3928V33.2234C25.1623 34.5655 22.377 36.939 20.5 40C18.623 36.939 15.8377 34.5655 12.5474 33.2234V20.1499C15.6282 22.4435 18.3153 25.2398 20.5 28.4258Z" fill="#B0A0C6"/>
<path d="M20.5 24.7676C18.3153 21.5816 15.6282 18.7853 12.5474 16.4918V8.8156C15.6282 11.1092 18.3153 13.9055 20.5 17.0915C22.6207 14.093 27.4512 5.87706 36.3463 0C32.046 4.01799 20.5 24.7676 20.5 24.7676Z" fill="#E67B3B"/>
<path d="M20.5 40C14.5503 36.7016 5.47845 35.4423 5.47845 35.4423V10.7946C6.2204 10.675 6.97842 10.709 7.70717 10.8944C8.43593 11.0799 9.12047 11.4131 9.71984 11.874V34.3628C13.5167 35.8079 17.1346 37.6998 20.5 40Z" fill="#9CBAEB"/>
<path d="M20.5 40C26.4497 36.7016 35.5215 35.4423 35.5215 35.4423V10.7946C34.7796 10.675 34.0216 10.709 33.2928 10.8944C32.5641 11.0799 31.8796 11.4131 31.2802 11.874V34.3628C27.4833 35.8079 23.8654 37.6998 20.5 40Z" fill="#9CBAEB"/>
<path d="M20.5 40C25.7428 37.5412 41 37.1814 41 37.1814V12.9536C39.7952 12.9901 38.6276 13.3863 37.6422 14.093V35.8621C37.7012 35.922 25.7428 37.5412 20.5 40Z" fill="#749AD8"/>
<path d="M20.5 40C15.2572 37.5412 3.35775 35.922 3.35775 35.922V14.1529C2.37907 13.4329 1.2073 13.0353 0 13.0135V37.2414C0 37.1814 15.2572 37.5412 20.5 40Z" fill="#749AD8"/>
</svg>
