<svg width="18" height="18" viewBox="0 0 18 18" fill="none" xmlns="http://www.w3.org/2000/svg">
<path d="M9 0C4.032 0 0 4.032 0 9C0 13.968 4.032 18 9 18C13.968 18 18 13.968 18 9C18 4.032 13.968 0 9 0ZM9 16.2C5.031 16.2 1.8 12.969 1.8 9C1.8 5.031 5.031 1.8 9 1.8C12.969 1.8 16.2 5.031 16.2 9C16.2 12.969 12.969 16.2 9 16.2Z" fill="#C0BBC7"/>
<path d="M7.11563 5.09502L12.6156 8.43785C13.1281 8.72528 13.1281 9.4657 12.6156 9.74999L7.11563 12.9054C6.61875 13.1803 6 12.8242 6 12.2493V5.75109C6 5.17313 6.62187 4.8201 7.11563 5.09502Z" fill="#C0BBC7"/>
</svg>
