<svg width="15" height="15" viewBox="0 0 15 15" fill="none" xmlns="http://www.w3.org/2000/svg">
<path d="M7.48954 15C3.34728 15 0 11.6527 0 7.51046C0 3.3682 3.34728 0 7.48954 0C11.6318 0 15 3.3682 15 7.51046C15 11.6527 11.6318 15 7.48954 15ZM7.48954 1.86192C4.39331 1.86192 1.88285 4.41423 1.88285 7.51046C1.88285 10.6067 4.39331 13.1172 7.48954 13.1172C10.5858 13.1172 13.1381 10.6067 13.1381 7.51046C13.1381 4.41423 10.5858 1.86192 7.48954 1.86192ZM9.51883 10.3766L6.86192 8.43096C6.67364 8.28452 6.48536 7.97071 6.48536 7.71967V3.4728C6.48536 3.24268 6.69456 3.05439 6.94561 3.05439H7.82427C8.05439 3.05439 8.24268 3.24268 8.24268 3.4728V6.82008C8.24268 7.07113 8.43096 7.38494 8.61925 7.53138L10.5649 8.93305C10.7531 9.0795 10.795 9.37239 10.6485 9.56067L10.1255 10.272C9.97908 10.4603 9.70711 10.5021 9.51883 10.3766Z" fill="#B3A0CC"/>
</svg>
