<svg width="156" height="153" viewBox="0 0 156 153" fill="none" xmlns="http://www.w3.org/2000/svg">
<g filter="url(#filter0_d)">
<rect x="10" y="10" width="136" height="133" rx="10" fill="#B3A0CC"/>
</g>
<path d="M80.125 85.125L87 80.125C87.6667 80.5417 88.375 80.75 89.125 80.75C90.2917 80.75 91.2708 80.3542 92.0625 79.5625C92.8542 78.7708 93.25 77.8333 93.25 76.75C93.25 75.5833 92.8542 74.6042 92.0625 73.8125C91.2708 73.0208 90.2917 72.625 89.125 72.625C88.0417 72.625 87.1042 73.0208 86.3125 73.8125C85.5208 74.6042 85.125 75.5833 85.125 76.75V77.25L80.125 80.875V69.5L87 64.5C87.5833 64.8333 88.2917 65 89.125 65C90.2917 65 91.2708 64.6042 92.0625 63.8125C92.8542 63.0208 93.25 62.0833 93.25 61C93.25 59.8333 92.8542 58.8542 92.0625 58.0625C91.2708 57.2708 90.2917 56.875 89.125 56.875C88.0417 56.875 87.1042 57.2708 86.3125 58.0625C85.5208 58.8542 85.125 59.8333 85.125 61V61.5L80.125 65.125V48H76.125V57L71.125 53.375V52.625C71.125 51.4583 70.7292 50.4792 69.9375 49.6875C69.1458 48.8958 68.2083 48.5 67.125 48.5C65.9583 48.5 64.9792 48.8958 64.1875 49.6875C63.3958 50.4792 63 51.4583 63 52.625C63 53.7917 63.3958 54.7708 64.1875 55.5625C64.9792 56.3542 65.9583 56.75 67.125 56.75C67.7083 56.75 68.3333 56.5833 69 56.25L76.125 61.375V72.75L71.125 69V68.375C71.125 67.2083 70.7292 66.2292 69.9375 65.4375C69.1458 64.6458 68.2083 64.25 67.125 64.25C65.9583 64.25 64.9792 64.6458 64.1875 65.4375C63.3958 66.2292 63 67.2083 63 68.375C63 69.5417 63.3958 70.5 64.1875 71.25C64.9792 72 65.9583 72.375 67.125 72.375C67.875 72.375 68.5417 72.2083 69.125 71.875L76.125 77V89.125L71.125 85.5V84.75C71.125 83.5833 70.75 82.625 70 81.875C69.25 81.125 68.2917 80.75 67.125 80.75C65.9583 80.75 64.9792 81.125 64.1875 81.875C63.3958 82.625 63 83.5833 63 84.75C63 85.9167 63.3958 86.8958 64.1875 87.6875C64.9792 88.4792 65.9583 88.875 67.125 88.875C67.625 88.875 68.2917 88.7083 69.125 88.375L76.125 93.375V105.5H80.125V101.5L87 96.625C87.6667 97.0417 88.375 97.25 89.125 97.25C90.2917 97.25 91.2708 96.8333 92.0625 96C92.8542 95.1667 93.25 94.2083 93.25 93.125C93.25 92.0417 92.8542 91.0833 92.0625 90.25C91.2708 89.4167 90.2917 89 89.125 89C88.0417 89 87.1042 89.3958 86.3125 90.1875C85.5208 90.9792 85.125 91.9583 85.125 93.125V93.625L80.125 97.25V85.125Z" fill="white"/>
<defs>
<filter id="filter0_d" x="0" y="0" width="156" height="153" filterUnits="userSpaceOnUse" color-interpolation-filters="sRGB">
<feFlood flood-opacity="0" result="BackgroundImageFix"/>
<feColorMatrix in="SourceAlpha" type="matrix" values="0 0 0 0 0 0 0 0 0 0 0 0 0 0 0 0 0 0 127 0"/>
<feOffset/>
<feGaussianBlur stdDeviation="5"/>
<feColorMatrix type="matrix" values="0 0 0 0 0 0 0 0 0 0 0 0 0 0 0 0 0 0 0.15 0"/>
<feBlend mode="normal" in2="BackgroundImageFix" result="effect1_dropShadow"/>
<feBlend mode="normal" in="SourceGraphic" in2="effect1_dropShadow" result="shape"/>
</filter>
</defs>
</svg>
