<svg width="126" height="123" viewBox="0 0 126 123" fill="none" xmlns="http://www.w3.org/2000/svg">
<g filter="url(#filter0_d)">
<rect x="10" y="10" width="106" height="103" rx="10" fill="#B3A0CC"/>
</g>
<path d="M66.0745 52.6404C71.9926 52.6404 76.7902 47.8337 76.7902 41.9044C76.7902 35.975 71.9926 31.1684 66.0745 31.1684C60.1564 31.1684 55.3589 35.975 55.3589 41.9044C55.3589 47.8337 60.1564 52.6404 66.0745 52.6404Z" stroke="white" stroke-width="3" stroke-miterlimit="10" stroke-linecap="round"/>
<path d="M75.2249 47.5739C79.5593 51.3738 82.3286 57.164 83.4122 62.8335C85.0376 71.5792 83.1112 89.0101 72.4557 91.5433C68.9641 92.3877 65.0511 91.4227 62.4023 89.0704C59.4525 86.5372 57.7067 82.7977 54.4558 81.8326C48.0746 79.9026 49.0378 89.0101 45.8472 91.4227C42.0546 94.2575 41.7536 85.0896 42.1148 82.9786C42.8372 78.455 44.9442 73.3283 48.9174 70.7347C54.6364 67.0556 61.3789 70.8554 65.1113 75.5599" stroke="white" stroke-width="3" stroke-miterlimit="10" stroke-linecap="round"/>
<path d="M65.6531 59.094C65.6531 59.094 58.6097 54.4498 54.7569 54.1482C50.9041 53.8466 50.7235 56.8021 51.8673 58.4306C53.0111 60.0591 67.6397 72.6045 74.3219 64.9445" stroke="white" stroke-width="3" stroke-miterlimit="10" stroke-linecap="round"/>
<defs>
<filter id="filter0_d" x="0" y="0" width="126" height="123" filterUnits="userSpaceOnUse" color-interpolation-filters="sRGB">
<feFlood flood-opacity="0" result="BackgroundImageFix"/>
<feColorMatrix in="SourceAlpha" type="matrix" values="0 0 0 0 0 0 0 0 0 0 0 0 0 0 0 0 0 0 127 0"/>
<feOffset/>
<feGaussianBlur stdDeviation="5"/>
<feColorMatrix type="matrix" values="0 0 0 0 0 0 0 0 0 0 0 0 0 0 0 0 0 0 0.15 0"/>
<feBlend mode="normal" in2="BackgroundImageFix" result="effect1_dropShadow"/>
<feBlend mode="normal" in="SourceGraphic" in2="effect1_dropShadow" result="shape"/>
</filter>
</defs>
</svg>
