<svg width="104" height="97" viewBox="0 0 104 97" fill="none" xmlns="http://www.w3.org/2000/svg">
<g filter="url(#filter0_d)">
<rect x="10" y="10" width="84" height="77" rx="10" fill="white"/>
</g>
<g clip-path="url(#clip0)">
<path d="M36.3629 53.0395H30.3045V42.4803C30.3045 41.6414 29.5886 41 28.6523 41C27.716 41 27 41.6414 27 42.4803V54.5197C27 55.3586 27.716 56 28.6523 56H36.3629C37.2991 56 38.0151 55.3586 38.0151 54.5197C38.0151 53.6809 37.2991 53.0395 36.3629 53.0395Z" fill="#B3A0CC"/>
<path d="M63.0745 54.5197C63.0745 53.6809 63.7905 53.0395 64.7268 53.0395H76.3477C77.284 53.0395 78 53.6809 78 54.5197C78 55.3586 77.284 56 76.3477 56H64.7268C63.8456 56 63.0745 55.3092 63.0745 54.5197Z" fill="#B3A0CC"/>
<path d="M63.0745 42.4803C63.0745 41.6414 63.7905 41 64.7268 41H76.3477C77.284 41 78 41.6414 78 42.4803C78 43.3191 77.284 43.9605 76.3477 43.9605H64.7268C63.8456 43.9605 63.0745 43.3191 63.0745 42.4803Z" fill="#B3A0CC"/>
<path d="M63.0745 48.5C63.0745 47.6612 63.7905 47.0197 64.7268 47.0197H76.3477C77.284 47.0197 78 47.6612 78 48.5C78 49.3388 77.284 49.9803 76.3477 49.9803H64.7268C63.8456 49.9803 63.0745 49.3388 63.0745 48.5Z" fill="#B3A0CC"/>
<path d="M41.8153 56C40.879 56 40.1631 55.3586 40.1631 54.5197V42.4803C40.1631 41.6414 40.879 41 41.8153 41C42.7516 41 43.4676 41.6414 43.4676 42.4803V54.5197C43.4676 55.3092 42.6965 56 41.8153 56Z" fill="#B3A0CC"/>
<path d="M59.3844 42.9737C59.7149 42.1842 59.2743 41.3454 58.3931 41.0493C57.5119 40.7533 56.5756 41.148 56.2451 41.9375L52.9406 50.0789L49.6911 41.9868C49.3607 41.1974 48.4244 40.8026 47.5432 41.0987C46.7171 41.3454 46.2765 42.2336 46.5518 42.9737L51.3434 54.8651C51.3985 55.1118 51.5637 55.3092 51.7289 55.5066C51.784 55.5559 51.8942 55.6053 51.9492 55.7039C51.9492 55.7039 51.9492 55.7039 52.0043 55.7039C52.0594 55.7533 52.1695 55.8026 52.2246 55.8026C52.2246 55.8026 52.2797 55.8026 52.2797 55.852C52.3348 55.852 52.3348 55.9013 52.3898 55.9013C52.4449 55.9013 52.4449 55.9013 52.5 55.9507C52.5551 55.9507 52.5551 55.9507 52.6102 56C52.6652 56 52.7203 56 52.7754 56C52.8305 56 52.8855 56 52.9406 56C52.9957 56 53.0508 56 53.1058 56C53.1609 56 53.216 56 53.2711 56C53.3261 56 53.3812 56 53.3812 55.9507C53.4363 55.9507 53.4363 55.9507 53.4914 55.9013C53.5464 55.9013 53.5464 55.852 53.6015 55.852C53.6015 55.852 53.6566 55.852 53.6566 55.8026C53.7117 55.7533 53.8218 55.7533 53.8769 55.7039C53.8769 55.7039 53.8769 55.7039 53.932 55.7039C53.987 55.6546 54.0972 55.6053 54.1523 55.5066C54.3175 55.3092 54.4827 55.1118 54.5378 54.8651L59.3844 42.9737Z" fill="#B3A0CC"/>
</g>
<defs>
<filter id="filter0_d" x="0" y="0" width="104" height="97" filterUnits="userSpaceOnUse" color-interpolation-filters="sRGB">
<feFlood flood-opacity="0" result="BackgroundImageFix"/>
<feColorMatrix in="SourceAlpha" type="matrix" values="0 0 0 0 0 0 0 0 0 0 0 0 0 0 0 0 0 0 127 0"/>
<feOffset/>
<feGaussianBlur stdDeviation="5"/>
<feColorMatrix type="matrix" values="0 0 0 0 0 0 0 0 0 0 0 0 0 0 0 0 0 0 0.15 0"/>
<feBlend mode="normal" in2="BackgroundImageFix" result="effect1_dropShadow"/>
<feBlend mode="normal" in="SourceGraphic" in2="effect1_dropShadow" result="shape"/>
</filter>
<clipPath id="clip0">
<rect width="51" height="15" fill="white" transform="translate(27 41)"/>
</clipPath>
</defs>
</svg>
