<svg width="93" height="88" viewBox="0 0 93 88" fill="none" xmlns="http://www.w3.org/2000/svg">
<g filter="url(#filter0_d)">
<rect x="10" y="10" width="73" height="68" rx="10" fill="white"/>
</g>
<path d="M46.5 28C47.7821 28 49.0117 28.5061 49.9183 29.407C50.8249 30.3079 51.3343 31.5298 51.3343 32.8038C51.3343 34.0779 50.8249 35.2997 49.9183 36.2006C49.0117 37.1015 47.7821 37.6076 46.5 37.6076C45.2179 37.6076 43.9883 37.1015 43.0817 36.2006C42.1751 35.2997 41.6657 34.0779 41.6657 32.8038C41.6657 31.5298 42.1751 30.3079 43.0817 29.407C43.9883 28.5061 45.2179 28 46.5 28ZM46.5 39.2089C49.1186 39.2089 51.5228 39.7725 53.7143 40.8982C55.9042 42.0239 57 43.3866 57 44.9879V54.2208C57 56.0222 55.59 57.5242 52.77 58.7252V55.196C52.77 53.6956 51.3842 52.6195 48.6142 51.9694C47.7086 51.7692 47.0028 51.6684 46.5 51.6684C45.09 51.6684 43.7686 51.9438 42.5359 52.4946C41.3 53.0455 40.5587 53.7452 40.3057 54.5955C42.4715 55.4474 44.5357 55.8717 46.5 55.8717L48.0856 55.7228V59.9261L46.5 59.9998C44.344 60.0116 42.2092 59.577 40.2316 58.7236C37.4116 57.5226 36 56.0222 36 54.2208V44.9879C36 43.3866 37.0958 42.0239 39.2873 40.8982C41.4756 39.7725 43.8798 39.2089 46.5 39.2089ZM46.5 42.4114C45.6453 42.4114 44.8255 42.7488 44.2211 43.3494C43.6167 43.95 43.2772 44.7646 43.2772 45.614C43.2772 46.4633 43.6167 47.2779 44.2211 47.8785C44.8255 48.4791 45.6453 48.8165 46.5 48.8165C47.3547 48.8165 48.1745 48.4791 48.7789 47.8785C49.3833 47.2779 49.7228 46.4633 49.7228 45.614C49.7228 44.7646 49.3833 43.95 48.7789 43.3494C48.1745 42.7488 47.3547 42.4114 46.5 42.4114Z" fill="#B3A0CC"/>
<defs>
<filter id="filter0_d" x="0" y="0" width="93" height="88" filterUnits="userSpaceOnUse" color-interpolation-filters="sRGB">
<feFlood flood-opacity="0" result="BackgroundImageFix"/>
<feColorMatrix in="SourceAlpha" type="matrix" values="0 0 0 0 0 0 0 0 0 0 0 0 0 0 0 0 0 0 127 0"/>
<feOffset/>
<feGaussianBlur stdDeviation="5"/>
<feColorMatrix type="matrix" values="0 0 0 0 0 0 0 0 0 0 0 0 0 0 0 0 0 0 0.15 0"/>
<feBlend mode="normal" in2="BackgroundImageFix" result="effect1_dropShadow"/>
<feBlend mode="normal" in="SourceGraphic" in2="effect1_dropShadow" result="shape"/>
</filter>
</defs>
</svg>
